<svg width="16.649048" height="20.722900" viewBox="0 0 16.649 20.7229" fill="none" xmlns="http://www.w3.org/2000/svg" xmlns:xlink="http://www.w3.org/1999/xlink">
	<desc>
			Created with Pixso.
	</desc>
	<defs/>
	<circle id="Ellipse_736" cx="8.328934" cy="5.528076" r="4.778032" stroke="#222222" stroke-opacity="1.000000" stroke-width="1.500000" stroke-linejoin="round"/>
	<path id="Path_33945" d="M0.96 15.98C1.42 15.06 2.71 14.58 3.78 14.36C4.56 14.19 5.34 14.08 6.13 14.03C7.59 13.9 9.05 13.9 10.51 14.03C11.3 14.08 12.08 14.19 12.85 14.36C13.93 14.58 15.22 15.02 15.67 15.98C15.97 16.59 15.97 17.31 15.67 17.93C15.22 18.89 13.93 19.33 12.85 19.54C12.08 19.71 11.3 19.82 10.51 19.88C9.32 19.98 8.13 19.99 6.94 19.93C6.67 19.93 6.4 19.93 6.13 19.88C5.34 19.82 4.56 19.71 3.79 19.54C2.71 19.33 1.43 18.89 0.96 17.93C0.82 17.62 0.74 17.29 0.75 16.95C0.74 16.61 0.82 16.28 0.96 15.98Z" stroke="#222222" stroke-opacity="1.000000" stroke-width="1.500000" stroke-linejoin="round"/>
</svg>
