<svg width="168.000000" height="24.000000" viewBox="0 0 168 24" fill="none" xmlns="http://www.w3.org/2000/svg" xmlns:xlink="http://www.w3.org/1999/xlink">
	<desc>
			Created with Pixso.
	</desc>
	<defs/>
	<rect id="Iconly/Bulk/Star" rx="0.000000" width="23.000000" height="23.000000" transform="translate(144.500000 0.500000)" fill="#FFFFFF" fill-opacity="0"/>
	<g opacity="0.400000" style="mix-blend-mode:normal">
		<path id="Fill 1" d="M156.97 3.11L159.2 7.58C159.36 7.91 159.67 8.13 160.04 8.18L165.04 8.91C165.33 8.95 165.59 9.11 165.77 9.34C165.95 9.57 166.03 9.87 165.98 10.16C165.95 10.4 165.84 10.62 165.66 10.79L162.04 14.3C161.77 14.55 161.65 14.91 161.72 15.26L162.61 20.2C162.71 20.8 162.31 21.36 161.72 21.48C161.47 21.51 161.22 21.47 161 21.36L156.54 19.04C156.21 18.87 155.82 18.87 155.49 19.04L151.03 21.36C150.48 21.65 149.8 21.45 149.5 20.91C149.38 20.7 149.34 20.45 149.38 20.21L150.27 15.27C150.34 14.92 150.22 14.56 149.95 14.31L146.33 10.8C145.9 10.38 145.88 9.7 146.3 9.27C146.31 9.26 146.32 9.25 146.33 9.24C146.5 9.06 146.73 8.95 146.97 8.92L151.97 8.19C152.33 8.14 152.64 7.92 152.81 7.59L154.96 3.11C155.15 2.72 155.54 2.49 155.97 2.5L156.11 2.5C156.48 2.54 156.8 2.77 156.97 3.11Z" fill="#FFC046" fill-opacity="1.000000" fill-rule="nonzero"/>
	</g>
	<path id="Fill 4" d="M155.99 18.91C155.79 18.92 155.61 18.97 155.44 19.06L151 21.38C150.45 21.64 149.8 21.44 149.5 20.92C149.39 20.71 149.34 20.47 149.38 20.23L150.27 15.3C150.33 14.94 150.21 14.58 149.95 14.32L146.32 10.81C145.89 10.39 145.89 9.7 146.31 9.27C146.31 9.26 146.32 9.26 146.32 9.25C146.5 9.08 146.72 8.97 146.96 8.94L151.96 8.2C152.32 8.15 152.64 7.93 152.8 7.6L154.97 3.06C155.18 2.69 155.58 2.47 156 2.5C155.99 2.79 155.99 18.71 155.99 18.91Z" fill="#FFC046" fill-opacity="1.000000" fill-rule="nonzero"/>
	<rect id="Iconly/Bold/Star" rx="0.000000" width="23.000000" height="23.000000" transform="translate(0.500000 0.500000)" fill="#FFFFFF" fill-opacity="0"/>
	<path id="Star" d="M17.91 14.32C17.65 14.57 17.54 14.93 17.59 15.29L18.48 20.2C18.56 20.62 18.38 21.04 18.03 21.29C17.69 21.54 17.24 21.57 16.86 21.37L12.43 19.06C12.28 18.97 12.11 18.93 11.93 18.92L11.66 18.92C11.57 18.94 11.48 18.97 11.39 19.01L6.96 21.34C6.74 21.45 6.5 21.48 6.25 21.45C5.66 21.33 5.27 20.77 5.36 20.17L6.25 15.25C6.31 14.9 6.19 14.53 5.93 14.28L2.32 10.78C2.02 10.48 1.92 10.04 2.05 9.65C2.19 9.25 2.53 8.96 2.94 8.9L7.91 8.17C8.29 8.14 8.62 7.9 8.79 7.57L10.98 3.08C11.04 2.97 11.1 2.88 11.18 2.81L11.27 2.73C11.32 2.68 11.37 2.64 11.43 2.6L11.54 2.57L11.71 2.5L12.13 2.5C12.51 2.53 12.84 2.76 13.01 3.09L15.23 7.57C15.39 7.89 15.7 8.12 16.06 8.17L21.03 8.9C21.45 8.96 21.8 9.25 21.94 9.65C22.07 10.05 21.96 10.49 21.65 10.78L17.91 14.32Z" fill="#FFC046" fill-opacity="1.000000" fill-rule="nonzero"/>
	<rect id="Iconly/Bold/Star" rx="0.000000" width="23.000000" height="23.000000" transform="translate(36.500000 0.500000)" fill="#FFFFFF" fill-opacity="0"/>
	<path id="Star" d="M53.91 14.32C53.65 14.57 53.54 14.93 53.59 15.29L54.48 20.2C54.56 20.62 54.38 21.04 54.03 21.29C53.69 21.54 53.24 21.57 52.86 21.37L48.43 19.06C48.28 18.97 48.11 18.93 47.93 18.92L47.66 18.92C47.57 18.94 47.48 18.97 47.39 19.01L42.96 21.34C42.74 21.45 42.5 21.48 42.25 21.45C41.66 21.33 41.27 20.77 41.36 20.17L42.25 15.25C42.31 14.9 42.19 14.53 41.93 14.28L38.32 10.78C38.02 10.48 37.92 10.04 38.05 9.65C38.19 9.25 38.53 8.96 38.94 8.9L43.91 8.17C44.29 8.14 44.62 7.9 44.79 7.57L46.98 3.08C47.04 2.97 47.1 2.88 47.18 2.81L47.27 2.73C47.32 2.68 47.37 2.64 47.43 2.6L47.54 2.57L47.71 2.5L48.13 2.5C48.51 2.53 48.84 2.76 49.01 3.09L51.23 7.57C51.39 7.89 51.7 8.12 52.06 8.17L57.03 8.9C57.45 8.96 57.8 9.25 57.94 9.65C58.07 10.05 57.96 10.49 57.65 10.78L53.91 14.32Z" fill="#FFC046" fill-opacity="1.000000" fill-rule="nonzero"/>
	<rect id="Iconly/Bold/Star" rx="0.000000" width="23.000000" height="23.000000" transform="translate(72.500000 0.500000)" fill="#FFFFFF" fill-opacity="0"/>
	<path id="Star" d="M89.91 14.32C89.65 14.57 89.54 14.93 89.59 15.29L90.48 20.2C90.56 20.62 90.38 21.04 90.03 21.29C89.69 21.54 89.24 21.57 88.86 21.37L84.43 19.06C84.28 18.97 84.11 18.93 83.93 18.92L83.66 18.92C83.57 18.94 83.48 18.97 83.39 19.01L78.96 21.34C78.74 21.45 78.5 21.48 78.25 21.45C77.66 21.33 77.27 20.77 77.36 20.17L78.25 15.25C78.31 14.9 78.19 14.53 77.93 14.28L74.32 10.78C74.02 10.48 73.92 10.04 74.05 9.65C74.19 9.25 74.53 8.96 74.94 8.9L79.91 8.17C80.29 8.14 80.62 7.9 80.79 7.57L82.98 3.08C83.04 2.97 83.1 2.88 83.18 2.81L83.27 2.73C83.32 2.68 83.37 2.64 83.43 2.6L83.54 2.57L83.71 2.5L84.13 2.5C84.51 2.53 84.84 2.76 85.01 3.09L87.23 7.57C87.39 7.89 87.7 8.12 88.06 8.17L93.03 8.9C93.45 8.96 93.8 9.25 93.94 9.65C94.07 10.05 93.96 10.49 93.65 10.78L89.91 14.32Z" fill="#FFC046" fill-opacity="1.000000" fill-rule="nonzero"/>
	<rect id="Iconly/Bold/Star" rx="0.000000" width="23.000000" height="23.000000" transform="translate(108.500000 0.500000)" fill="#FFFFFF" fill-opacity="0"/>
	<path id="Star" d="M125.91 14.32C125.65 14.57 125.54 14.93 125.59 15.29L126.48 20.2C126.56 20.62 126.38 21.04 126.03 21.29C125.69 21.54 125.24 21.57 124.86 21.37L120.44 19.06C120.28 18.97 120.11 18.93 119.94 18.92L119.66 18.92C119.57 18.94 119.48 18.97 119.39 19.01L114.96 21.34C114.75 21.45 114.5 21.48 114.25 21.45C113.66 21.33 113.27 20.77 113.36 20.17L114.25 15.25C114.31 14.9 114.19 14.53 113.94 14.28L110.32 10.78C110.02 10.48 109.92 10.04 110.06 9.65C110.19 9.25 110.53 8.96 110.94 8.9L115.91 8.17C116.29 8.14 116.62 7.9 116.79 7.57L118.98 3.08C119.04 2.97 119.1 2.88 119.18 2.81L119.27 2.73C119.32 2.68 119.38 2.64 119.44 2.6L119.54 2.57L119.71 2.5L120.14 2.5C120.51 2.53 120.84 2.76 121.02 3.09L123.23 7.57C123.39 7.89 123.71 8.12 124.06 8.17L129.03 8.9C129.45 8.96 129.81 9.25 129.94 9.65C130.08 10.05 129.96 10.49 129.65 10.78L125.91 14.32Z" fill="#FFC046" fill-opacity="1.000000" fill-rule="nonzero"/>
</svg>
