<svg width="12.837189" height="12.837158" viewBox="0 0 12.8372 12.8372" fill="none" xmlns="http://www.w3.org/2000/svg" xmlns:xlink="http://www.w3.org/1999/xlink">
	<desc>
			Created with Pixso.
	</desc>
	<defs>
		<clipPath id="clip34_568">
			<rect id="instagram 1" rx="0.000000" width="11.837183" height="11.837183" transform="translate(0.500000 0.500000)" fill="white" fill-opacity="0"/>
		</clipPath>
	</defs>
	<rect id="instagram 1" rx="0.000000" width="11.837183" height="11.837183" transform="translate(0.500000 0.500000)" fill="#FFFFFF" fill-opacity="0"/>
	<g clip-path="url(#clip34_568)">
		<path id="Vector" d="M12.82 3.77C12.79 3.09 12.68 2.62 12.52 2.21C12.36 1.78 12.11 1.39 11.78 1.07C11.46 0.75 11.07 0.49 10.64 0.33C10.23 0.18 9.77 0.07 9.09 0.04C8.4 0 8.18 0 6.44 0C4.69 0 4.48 0 3.79 0.03C3.11 0.06 2.64 0.17 2.23 0.33C1.8 0.49 1.42 0.74 1.1 1.07C0.77 1.39 0.52 1.78 0.36 2.21C0.2 2.62 0.09 3.08 0.06 3.77C0.03 4.45 0.02 4.67 0.02 6.41C0.02 8.16 0.03 8.38 0.06 9.06C0.09 9.74 0.2 10.21 0.35 10.62C0.52 11.05 0.77 11.44 1.1 11.76C1.42 12.08 1.81 12.34 2.23 12.5C2.64 12.65 3.11 12.76 3.79 12.79C4.47 12.82 4.69 12.83 6.44 12.83C8.18 12.83 8.4 12.82 9.08 12.79C9.76 12.76 10.23 12.65 10.64 12.5C11.5 12.16 12.18 11.48 12.52 10.62C12.67 10.21 12.78 9.74 12.82 9.06C12.85 8.38 12.85 8.16 12.85 6.41C12.85 4.67 12.85 4.45 12.82 3.77ZM11.66 9.01C11.64 9.64 11.53 9.98 11.44 10.2C11.23 10.76 10.78 11.2 10.22 11.42C10 11.51 9.66 11.61 9.03 11.64C8.36 11.67 8.15 11.68 6.44 11.68C4.73 11.68 4.52 11.67 3.85 11.64C3.22 11.61 2.88 11.51 2.66 11.42C2.38 11.32 2.12 11.15 1.92 10.94C1.71 10.73 1.54 10.48 1.44 10.2C1.35 9.98 1.25 9.64 1.22 9.01C1.19 8.34 1.18 8.13 1.18 6.42C1.18 4.71 1.19 4.5 1.22 3.83C1.25 3.2 1.35 2.86 1.44 2.64C1.54 2.36 1.71 2.1 1.92 1.9C2.13 1.69 2.38 1.52 2.66 1.42C2.88 1.33 3.23 1.23 3.85 1.2C4.53 1.17 4.73 1.16 6.44 1.16C8.16 1.16 8.36 1.17 9.04 1.2C9.66 1.23 10 1.33 10.23 1.42C10.51 1.52 10.76 1.69 10.96 1.9C11.18 2.11 11.34 2.36 11.44 2.64C11.53 2.86 11.64 3.2 11.66 3.83C11.69 4.5 11.7 4.71 11.7 6.42C11.7 8.13 11.69 8.33 11.66 9.01Z" fill="#402F2C" fill-opacity="1.000000" fill-rule="nonzero"/>
		<path id="Vector" d="M6.44 3.12C4.62 3.12 3.14 4.59 3.14 6.41C3.14 8.24 4.62 9.71 6.44 9.71C8.26 9.71 9.74 8.24 9.74 6.41C9.74 4.59 8.26 3.12 6.44 3.12ZM6.44 8.55C5.26 8.55 4.3 7.6 4.3 6.41C4.3 5.23 5.26 4.28 6.44 4.28C7.62 4.28 8.58 5.23 8.58 6.41C8.58 7.6 7.62 8.55 6.44 8.55Z" fill="#402F2C" fill-opacity="1.000000" fill-rule="nonzero"/>
		<path id="Vector" d="M10.64 2.99C10.64 3.41 10.29 3.76 9.87 3.76C9.44 3.76 9.1 3.41 9.1 2.99C9.1 2.56 9.44 2.22 9.87 2.22C10.29 2.22 10.64 2.56 10.64 2.99Z" fill="#402F2C" fill-opacity="1.000000" fill-rule="nonzero"/>
	</g>
</svg>
