<svg width="12.837189" height="12.837158" viewBox="0 0 12.8372 12.8372" fill="none" xmlns="http://www.w3.org/2000/svg" xmlns:xlink="http://www.w3.org/1999/xlink">
	<desc>
			Created with Pixso.
	</desc>
	<defs>
		<clipPath id="clip34_564">
			<rect id="twitter 1" rx="0.000000" width="11.837183" height="11.837183" transform="translate(0.500000 0.500000)" fill="white" fill-opacity="0"/>
		</clipPath>
	</defs>
	<rect id="twitter 1" rx="0.000000" width="11.837183" height="11.837183" transform="translate(0.500000 0.500000)" fill="#FFFFFF" fill-opacity="0"/>
	<g clip-path="url(#clip34_564)">
		<path id="Vector" d="M12.83 2.43C12.35 2.64 11.85 2.78 11.32 2.85C11.86 2.52 12.28 2.01 12.47 1.39C11.96 1.7 11.4 1.91 10.8 2.03C10.32 1.52 9.63 1.2 8.88 1.2C7.43 1.2 6.25 2.38 6.25 3.83C6.25 4.04 6.27 4.24 6.31 4.43C4.13 4.32 2.19 3.28 0.89 1.68C0.66 2.07 0.53 2.52 0.53 3.01C0.53 3.92 1 4.73 1.7 5.2C1.27 5.19 0.86 5.07 0.51 4.87C0.51 4.88 0.51 4.89 0.51 4.9C0.51 6.18 1.42 7.24 2.62 7.49C2.4 7.55 2.17 7.57 1.93 7.57C1.76 7.57 1.59 7.56 1.43 7.53C1.77 8.57 2.74 9.34 3.89 9.36C2.99 10.06 1.86 10.48 0.62 10.48C0.41 10.48 0.2 10.47 0 10.45C1.16 11.2 2.54 11.63 4.03 11.63C8.88 11.63 11.52 7.62 11.52 4.14C11.52 4.02 11.52 3.91 11.51 3.8C12.04 3.43 12.47 2.97 12.83 2.43Z" fill="#402F2C" fill-opacity="1.000000" fill-rule="nonzero"/>
	</g>
</svg>
